{
	"patcher" : 	{
		"fileversion" : 1,
		"appversion" : 		{
			"major" : 6,
			"minor" : 1,
			"revision" : 9,
			"architecture" : "x86"
		}
,
		"rect" : [ 32.0, 441.0, 1327.0, 428.0 ],
		"bgcolor" : [ 0.064898, 0.064898, 0.064898, 1.0 ],
		"bglocked" : 0,
		"openinpresentation" : 1,
		"default_fontsize" : 12.0,
		"default_fontface" : 0,
		"default_fontname" : "Arial",
		"gridonopen" : 0,
		"gridsize" : [ 15.0, 15.0 ],
		"gridsnaponopen" : 0,
		"statusbarvisible" : 2,
		"toolbarvisible" : 0,
		"boxanimatetime" : 200,
		"imprint" : 0,
		"enablehscroll" : 0,
		"enablevscroll" : 0,
		"devicewidth" : 0.0,
		"description" : "",
		"digest" : "",
		"tags" : "",
		"title" : "ARTICA_DMX_CONTROL",
		"boxes" : [ 			{
				"box" : 				{
					"id" : "obj-5",
					"maxclass" : "button",
					"numinlets" : 1,
					"numoutlets" : 1,
					"outlettype" : [ "bang" ],
					"patching_rect" : [ 1218.0, 176.449219, 20.0, 20.0 ]
				}

			}
, 			{
				"box" : 				{
					"id" : "obj-4",
					"maxclass" : "button",
					"numinlets" : 1,
					"numoutlets" : 1,
					"outlettype" : [ "bang" ],
					"patching_rect" : [ 1224.0, 109.0, 20.0, 20.0 ]
				}

			}
, 			{
				"box" : 				{
					"fontname" : "Arial",
					"fontsize" : 12.0,
					"id" : "obj-2",
					"maxclass" : "newobj",
					"numinlets" : 2,
					"numoutlets" : 1,
					"outlettype" : [ "bang" ],
					"patching_rect" : [ 1218.0, 139.0, 69.0, 20.0 ],
					"text" : "delay 2500"
				}

			}
, 			{
				"box" : 				{
					"fontname" : "Arial",
					"fontsize" : 12.0,
					"id" : "obj-1",
					"maxclass" : "newobj",
					"numinlets" : 1,
					"numoutlets" : 1,
					"outlettype" : [ "bang" ],
					"patching_rect" : [ 1218.0, 77.949219, 60.0, 20.0 ],
					"text" : "loadbang"
				}

			}
, 			{
				"box" : 				{
					"fontname" : "Arial",
					"fontsize" : 12.0,
					"id" : "obj-17",
					"maxclass" : "newobj",
					"numinlets" : 1,
					"numoutlets" : 1,
					"outlettype" : [ "" ],
					"patching_rect" : [ 1200.797729, 272.355316, 53.0, 20.0 ],
					"text" : "pcontrol"
				}

			}
, 			{
				"box" : 				{
					"fontname" : "Arial",
					"fontsize" : 12.0,
					"id" : "obj-16",
					"maxclass" : "message",
					"numinlets" : 2,
					"numoutlets" : 1,
					"outlettype" : [ "" ],
					"patching_rect" : [ 1189.25, 244.656097, 184.0, 18.0 ],
					"text" : "load dmx_channel_page.maxpat"
				}

			}
, 			{
				"box" : 				{
					"bgcolor" : [ 0.023529, 0.74902, 0.023529, 1.0 ],
					"fontface" : 1,
					"fontname" : "Arial",
					"fontsize" : 10.0,
					"id" : "obj-6",
					"maxclass" : "message",
					"numinlets" : 2,
					"numoutlets" : 1,
					"outlettype" : [ "" ],
					"patching_rect" : [ 1200.797729, 214.449219, 90.0, 16.0 ],
					"presentation" : 1,
					"presentation_rect" : [ 732.797729, 398.568604, 90.0, 16.0 ],
					"text" : "CHANNEL PAGE",
					"textcolor" : [ 1.0, 1.0, 1.0, 1.0 ]
				}

			}
, 			{
				"box" : 				{
					"fontname" : "Arial",
					"fontsize" : 11.0,
					"frgb" : 0.0,
					"id" : "obj-39",
					"maxclass" : "comment",
					"numinlets" : 1,
					"numoutlets" : 0,
					"patching_rect" : [ 1005.935486, 225.34285, 139.0, 19.0 ],
					"presentation" : 1,
					"presentation_rect" : [ 1132.3125, 402.568604, 78.84375, 19.0 ],
					"text" : "http://artica.cc",
					"textcolor" : [ 0.88587, 0.88587, 0.88587, 1.0 ]
				}

			}
, 			{
				"box" : 				{
					"autofit" : 1,
					"id" : "obj-20",
					"maxclass" : "fpic",
					"numinlets" : 1,
					"numoutlets" : 0,
					"patching_rect" : [ 1005.935486, 185.34285, 156.0, 40.0 ],
					"pic" : "ARTICA_BW-smaller.jpg",
					"presentation" : 1,
					"presentation_rect" : [ 1209.499756, 396.0, 104.656433, 24.137236 ]
				}

			}
, 			{
				"box" : 				{
					"id" : "obj-9",
					"maxclass" : "bpatcher",
					"name" : "xml_parser_holder.maxpat",
					"numinlets" : 0,
					"numoutlets" : 0,
					"offset" : [ -5.0, -5.0 ],
					"patching_rect" : [ 998.435486, 280.530273, 154.0, 37.0 ],
					"presentation" : 1,
					"presentation_rect" : [ 838.0, 395.0, 243.0, 25.0 ]
				}

			}
, 			{
				"box" : 				{
					"id" : "obj-8",
					"maxclass" : "bpatcher",
					"name" : "dmx_cue_page.maxpat",
					"numinlets" : 0,
					"numoutlets" : 0,
					"patching_rect" : [ 9.435486, 7.449219, 633.0, 189.0 ],
					"presentation" : 1,
					"presentation_rect" : [ 10.0, 13.431366, 1310.0, 410.137207 ],
					"varname" : "dmx_sub_master_page"
				}

			}
 ],
		"lines" : [ 			{
				"patchline" : 				{
					"destination" : [ "obj-4", 0 ],
					"disabled" : 0,
					"hidden" : 0,
					"source" : [ "obj-1", 0 ]
				}

			}
, 			{
				"patchline" : 				{
					"destination" : [ "obj-17", 0 ],
					"disabled" : 0,
					"hidden" : 0,
					"source" : [ "obj-16", 0 ]
				}

			}
, 			{
				"patchline" : 				{
					"destination" : [ "obj-5", 0 ],
					"disabled" : 0,
					"hidden" : 0,
					"source" : [ "obj-2", 0 ]
				}

			}
, 			{
				"patchline" : 				{
					"destination" : [ "obj-2", 0 ],
					"disabled" : 0,
					"hidden" : 0,
					"source" : [ "obj-4", 0 ]
				}

			}
, 			{
				"patchline" : 				{
					"destination" : [ "obj-6", 0 ],
					"disabled" : 0,
					"hidden" : 0,
					"source" : [ "obj-5", 0 ]
				}

			}
, 			{
				"patchline" : 				{
					"destination" : [ "obj-16", 0 ],
					"disabled" : 0,
					"hidden" : 0,
					"source" : [ "obj-6", 0 ]
				}

			}
 ],
		"dependency_cache" : [ 			{
				"name" : "dmx_cue_page.maxpat",
				"bootpath" : "/Users/guibot/Documents/LAB/PEDRORAMOS/ARTICA_DMX_CONTROL",
				"patcherrelativepath" : ".",
				"type" : "JSON",
				"implicit" : 1
			}
, 			{
				"name" : "dmx_sub_master.maxpat",
				"bootpath" : "/Users/guibot/Documents/LAB/PEDRORAMOS/ARTICA_DMX_CONTROL",
				"patcherrelativepath" : ".",
				"type" : "JSON",
				"implicit" : 1
			}
, 			{
				"name" : "dmx_channel_display.maxpat",
				"bootpath" : "/Users/guibot/Documents/LAB/PEDRORAMOS/ARTICA_DMX_CONTROL",
				"patcherrelativepath" : ".",
				"type" : "JSON",
				"implicit" : 1
			}
, 			{
				"name" : "thru.maxpat",
				"bootpath" : "/Applications/Max 6.1/patches/m4l-patches/Pluggo for Live resources/patches",
				"patcherrelativepath" : "../../../../../../Applications/Max 6.1/patches/m4l-patches/Pluggo for Live resources/patches",
				"type" : "JSON",
				"implicit" : 1
			}
, 			{
				"name" : "number_ramp_double.maxpat",
				"bootpath" : "/Users/guibot/Documents/LAB/PEDRORAMOS/ARTICA_DMX_CONTROL",
				"patcherrelativepath" : ".",
				"type" : "JSON",
				"implicit" : 1
			}
, 			{
				"name" : "number_ramp.maxpat",
				"bootpath" : "/Users/guibot/Documents/LAB/PEDRORAMOS/ARTICA_DMX_CONTROL",
				"patcherrelativepath" : ".",
				"type" : "JSON",
				"implicit" : 1
			}
, 			{
				"name" : "xml_parser_holder.maxpat",
				"bootpath" : "/Users/guibot/Documents/LAB/PEDRORAMOS/ARTICA_DMX_CONTROL",
				"patcherrelativepath" : ".",
				"type" : "JSON",
				"implicit" : 1
			}
, 			{
				"name" : "tap.xml.sax.maxpat",
				"bootpath" : "/Applications/Max 6.1/packages/TapTools/patchers/abstractions",
				"patcherrelativepath" : "../../../../../../Applications/Max 6.1/packages/TapTools/patchers/abstractions",
				"type" : "JSON",
				"implicit" : 1
			}
, 			{
				"name" : "xml_parser.maxpat",
				"bootpath" : "/Users/guibot/Documents/LAB/PEDRORAMOS/ARTICA_DMX_CONTROL",
				"patcherrelativepath" : ".",
				"type" : "JSON",
				"implicit" : 1
			}
, 			{
				"name" : "xml_parser_populater.maxpat",
				"bootpath" : "/Users/guibot/Documents/LAB/PEDRORAMOS/ARTICA_DMX_CONTROL",
				"patcherrelativepath" : ".",
				"type" : "JSON",
				"implicit" : 1
			}
, 			{
				"name" : "dmx_message_router_holder.maxpat",
				"bootpath" : "/Users/guibot/Documents/LAB/PEDRORAMOS/ARTICA_DMX_CONTROL",
				"patcherrelativepath" : ".",
				"type" : "JSON",
				"implicit" : 1
			}
, 			{
				"name" : "dmx_message_router_8th.maxpat",
				"bootpath" : "/Users/guibot/Documents/LAB/PEDRORAMOS/ARTICA_DMX_CONTROL",
				"patcherrelativepath" : ".",
				"type" : "JSON",
				"implicit" : 1
			}
, 			{
				"name" : "scaler.maxpat",
				"bootpath" : "/Users/guibot/Documents/LAB/PEDRORAMOS/ARTICA_DMX_CONTROL",
				"patcherrelativepath" : ".",
				"type" : "JSON",
				"implicit" : 1
			}
, 			{
				"name" : "ARTICA_BW-smaller.jpg",
				"bootpath" : "/Users/guibot/Documents/LAB/PEDRORAMOS/ARTICA_DMX_CONTROL",
				"patcherrelativepath" : ".",
				"type" : "JPEG",
				"implicit" : 1
			}
 ]
	}

}
